<svg width="37" height="34" viewBox="0 0 37 34" fill="none" xmlns="http://www.w3.org/2000/svg">
<path fill-rule="evenodd" clip-rule="evenodd" d="M10.8371 23.8607C14.528 25.9413 18.0221 28.3378 21.2785 31.0223L22.4921 32.0227C23.0099 32.4496 23.784 32.3858 24.2212 31.8802C24.6584 31.3747 24.593 30.6189 24.0753 30.1921L22.8617 29.1916C19.4942 26.4156 15.8808 23.9373 12.064 21.7858C9.365 20.2643 6.46551 19.1102 3.44621 18.3557L2.68983 18.1666C2.03334 18.0026 1.36493 18.3892 1.19688 19.0301C1.02884 19.671 1.42481 20.3237 2.0813 20.4877L2.83768 20.6768C5.6403 21.3772 8.33169 22.4484 10.8371 23.8607Z" fill="url(#paint0_linear_6_205)"/>
<path fill-rule="evenodd" clip-rule="evenodd" d="M11.8917 0.438694C11.3185 0.442931 10.8247 0.834141 10.7023 1.38095L6.53351 20.0113C6.38887 20.6577 6.80831 21.2962 7.47037 21.4373C8.13238 21.5786 8.78634 21.1691 8.931 20.5227L11.9431 7.0615L13.8429 14.9752C13.9293 15.335 14.1809 15.6358 14.525 15.7902C14.8689 15.9446 15.2666 15.9354 15.6027 15.7651L21.6523 12.7L21.9585 19.3478C21.9749 19.7048 22.1537 20.036 22.446 20.251C22.7384 20.4659 23.1138 20.5423 23.4697 20.4591L30.2769 18.8694L24.264 25.8896C23.8292 26.3972 23.8983 27.1527 24.4181 27.5772C24.9379 28.0016 25.7118 27.9343 26.1465 27.4267L34.5364 17.6313C34.8758 17.235 34.9168 16.671 34.6382 16.2319C34.3597 15.7928 33.8242 15.5774 33.3097 15.6976L24.3433 17.7916L24.0176 10.7191C23.9989 10.3108 23.768 9.93989 23.4054 9.73547C23.0427 9.53104 22.5984 9.52134 22.2267 9.70961L15.8722 12.9291L13.0957 1.36327C12.9649 0.818331 12.465 0.434458 11.8917 0.438694Z" fill="url(#paint1_linear_6_205)"/>
<defs>
<linearGradient id="paint0_linear_6_205" x1="12.8345" y1="18.1289" x2="12.8345" y2="32.3054" gradientUnits="userSpaceOnUse">
<stop stop-color="#2B41F0"/>
<stop offset="1" stop-color="#8455F8" stop-opacity="0"/>
</linearGradient>
<linearGradient id="paint1_linear_6_205" x1="20.6636" y1="0.43866" x2="20.6636" y2="27.8562" gradientUnits="userSpaceOnUse">
<stop stop-color="#2B41F0"/>
<stop offset="1" stop-color="#8455F8" stop-opacity="0"/>
</linearGradient>
</defs>
</svg>
