<svg width="97" height="27" viewBox="0 0 97 27" fill="none" xmlns="http://www.w3.org/2000/svg">
<path d="M29.186 -6.10352e-05L23.321 17.8069C23.1542 18.2933 22.8491 18.7205 22.443 19.0359C22.051 19.3385 21.5682 19.4996 21.073 19.4929C20.5682 19.5022 20.0751 19.3412 19.673 19.0359C19.2702 18.7247 18.9753 18.2948 18.83 17.8069L14.611 5.05794L10.4 17.8069C10.2332 18.2933 9.92807 18.7205 9.522 19.0359C9.12999 19.3385 8.64715 19.4996 8.152 19.4929C7.64725 19.5022 7.15408 19.3412 6.752 19.0359C6.34582 18.7261 6.04769 18.296 5.9 17.8069L0 -6.10352e-05H3.337L8.148 14.5759L12.925 -6.10352e-05H16.262L21.073 14.5759L25.885 -6.10352e-05H29.186Z" fill="white"/>
<path d="M37.667 19.4929C36.385 19.4986 35.1143 19.2541 33.926 18.7729C32.7416 18.2914 31.6711 17.5676 30.783 16.6479C29.88 15.7497 29.1638 14.6815 28.676 13.5049C28.1835 12.3194 27.9326 11.0476 27.938 9.76391C27.9322 8.47921 28.1831 7.20631 28.676 6.01991C29.1642 4.84442 29.8803 3.77723 30.783 2.87991C31.6735 1.95892 32.7431 1.22996 33.926 0.737911C35.1115 0.245409 36.3833 -0.00549416 37.667 -8.9413e-05C38.9954 -0.0250465 40.3135 0.238695 41.53 0.772911C42.6461 1.28165 43.6135 2.06759 44.34 3.05591C44.9792 3.85647 45.4079 4.80426 45.587 5.81291C45.7454 6.7283 45.6051 7.67034 45.187 8.49991C44.7376 9.39447 44.0188 10.1255 43.132 10.5899C42.1533 11.1064 41.0595 11.3662 39.953 11.3449H31.275C31.456 12.0552 31.7526 12.7309 32.153 13.3449C32.5443 13.9461 33.0306 14.4797 33.593 14.9249C34.1578 15.3721 34.7927 15.7229 35.472 15.9629C36.1786 16.2118 36.9229 16.3366 37.672 16.3319C39.3074 16.351 40.8889 15.7483 42.097 14.6459L44.238 16.9639C43.3431 17.7722 42.3072 18.4091 41.182 18.8429C40.0608 19.2758 38.8689 19.4963 37.667 19.4929ZM39.95 8.18391C40.4635 8.19344 40.973 8.09107 41.443 7.88391C41.8255 7.73286 42.1436 7.4536 42.343 7.09391C42.4351 6.90936 42.486 6.70696 42.4921 6.50077C42.4981 6.29458 42.4592 6.08954 42.378 5.89991C42.2473 5.56094 42.0699 5.24187 41.851 4.95191C41.3493 4.33962 40.7075 3.85718 39.9799 3.54543C39.2523 3.23368 38.4604 3.10178 37.671 3.16091C36.9204 3.15602 36.1751 3.28678 35.471 3.54691C34.7932 3.79733 34.1591 4.15303 33.592 4.60091C33.0296 5.04615 32.5433 5.57976 32.152 6.18091C31.7516 6.79491 31.455 7.4706 31.274 8.18091L39.95 8.18391Z" fill="white"/>
<path d="M62.801 2.87991C63.7015 3.77879 64.4152 4.84697 64.901 6.02291C65.3924 7.20864 65.6426 8.4804 65.637 9.76391C65.6424 11.0476 65.3915 12.3194 64.899 13.5049C64.4062 14.6894 63.6909 15.7686 62.792 16.6839C61.8822 17.5791 60.8109 18.2937 59.635 18.7899C58.4446 19.2857 57.1665 19.5367 55.877 19.5279C54.2176 19.5407 52.5834 19.1217 51.135 18.3119V26.8329H47.974V6.95391C47.9622 5.98108 48.1593 5.01705 48.552 4.12691C48.9383 3.2714 49.5065 2.5104 50.217 1.89691C50.9846 1.27928 51.8572 0.805035 52.793 0.49691C53.8047 0.162329 54.8645 -0.0038826 55.93 0.00490899C56.2107 0.00490899 56.4913 0.0165774 56.772 0.0399107C57.0527 0.0632441 57.333 0.0982436 57.613 0.14491C59.5869 0.488435 61.4022 1.44545 62.801 2.87991ZM55.891 16.3669C56.7743 16.3735 57.6496 16.1993 58.463 15.8549C59.2477 15.5243 59.9608 15.0448 60.563 14.4429C61.1636 13.8403 61.6421 13.1272 61.972 12.3429C62.3157 11.5272 62.4896 10.65 62.483 9.76491C62.4896 8.87978 62.3157 8.0026 61.972 7.18691C61.6421 6.40263 61.1636 5.68954 60.563 5.08691C59.9608 4.48498 59.2477 4.00547 58.463 3.67491C57.6496 3.33054 56.7743 3.1563 55.891 3.16291C54.5907 3.09511 53.3111 3.50999 52.298 4.32791C51.9148 4.64341 51.6102 5.04374 51.4083 5.49725C51.2065 5.95075 51.1129 6.445 51.135 6.94091V14.3199C51.7533 14.9676 52.4962 15.4836 53.319 15.8369C54.1309 16.188 55.0064 16.3684 55.891 16.3669Z" fill="white"/>
<path d="M67.929 19.4929V5.7199C67.9015 4.94262 68.0517 4.16931 68.3681 3.45883C68.6845 2.74835 69.1588 2.11941 69.755 1.6199C70.3961 1.08436 71.1342 0.676977 71.929 0.419897C72.8136 0.132539 73.7389 -0.00963513 74.669 -0.00110239H74.739C76.2682 -0.0116222 77.7723 0.388646 79.094 1.1579L77.514 3.8979C76.6724 3.40633 75.7136 3.15134 74.739 3.1599H74.637C74.0899 3.15425 73.5451 3.23111 73.021 3.3879C72.5711 3.51795 72.1527 3.7392 71.792 4.0379C71.5554 4.24771 71.3695 4.50844 71.2483 4.80047C71.127 5.0925 71.0736 5.40823 71.092 5.7239V19.4929H67.929Z" fill="white"/>
<path d="M87.157 19.4929C85.875 19.4987 84.6043 19.2541 83.416 18.7729C82.2316 18.2915 81.1611 17.5676 80.273 16.6479C79.3532 15.7596 78.6293 14.6887 78.148 13.5039C77.6668 12.3157 77.4223 11.0449 77.428 9.76294C77.422 8.4803 77.6666 7.20883 78.148 6.01994C78.6298 4.83665 79.3536 3.76712 80.273 2.87994C81.1635 1.95894 82.2331 1.22998 83.416 0.737941C84.6015 0.245438 85.8733 -0.00546506 87.157 -6.03142e-05C88.435 -0.00655227 89.7011 0.24444 90.88 0.737941C92.0637 1.23826 93.1376 1.96601 94.041 2.87994C94.9437 3.77726 95.6598 4.84445 96.148 6.01994C96.6405 7.2054 96.8914 8.47725 96.886 9.76094C96.8914 11.0446 96.6405 12.3165 96.148 13.5019C95.6602 14.6785 94.9441 15.7467 94.041 16.6449C93.1401 17.5576 92.0652 18.2802 90.88 18.7699C89.6985 19.2531 88.4334 19.4988 87.157 19.4929ZM87.157 3.16094C86.2748 3.15459 85.4012 3.33416 84.593 3.68794C83.8138 4.02747 83.1049 4.50977 82.503 5.10994C81.906 5.7099 81.4307 6.41958 81.103 7.19994C80.7606 8.01105 80.5874 8.88354 80.594 9.76394C80.5874 10.6443 80.7606 11.5168 81.103 12.3279C81.4304 13.109 81.9058 13.8194 82.503 14.4199C83.103 15.0169 83.8126 15.4923 84.593 15.8199C85.4041 16.1624 86.2766 16.3356 87.157 16.3289C88.0374 16.3356 88.9099 16.1624 89.721 15.8199C90.5014 15.4923 91.211 15.0169 91.811 14.4199C92.408 13.82 92.8834 13.1103 93.211 12.3299C93.5534 11.5188 93.7266 10.6463 93.72 9.76594C93.7266 8.88554 93.5534 8.01305 93.211 7.20194C92.8834 6.42158 92.408 5.7119 91.811 5.11194C91.2091 4.51177 90.5002 4.02948 89.721 3.68994C88.913 3.33547 88.0393 3.15522 87.157 3.16094Z" fill="white"/>
</svg>
